<?xml version="1.0" encoding="UTF-8"?>
<!DOCTYPE svg PUBLIC "-//W3C//DTD SVG 1.1//EN" "http://www.w3.org/Graphics/SVG/1.1/DTD/svg11.dtd">
<svg xmlns="http://www.w3.org/2000/svg" version="1.1" width="500px" height="90px" style="shape-rendering:geometricPrecision; text-rendering:geometricPrecision; image-rendering:optimizeQuality; fill-rule:evenodd; clip-rule:evenodd" xmlns:xlink="http://www.w3.org/1999/xlink">
<g><path style="opacity:0.867" fill="#fefffe" d="M 64.5,13.5 C 67.5184,13.3354 70.5184,13.502 73.5,14C 77.8814,18.0822 77.3814,21.2489 72,23.5C 69.6794,22.5128 68.0128,20.8461 67,18.5C 65.0153,22.2837 63.5153,26.2837 62.5,30.5C 64.0453,31.4519 65.712,31.7852 67.5,31.5C 67.5,32.8333 67.5,34.1667 67.5,35.5C 65.2075,35.2436 63.0408,35.5769 61,36.5C 58.7034,47.3729 55.0367,57.7062 50,67.5C 45.2907,73.7696 39.124,75.9363 31.5,74C 29.3813,71.7815 29.048,69.2815 30.5,66.5C 32.4325,65.4798 34.4325,65.3131 36.5,66C 37.2076,68.7676 38.7076,69.6009 41,68.5C 44.2503,57.6609 47.4169,46.8276 50.5,36C 49.2068,35.51 47.8734,35.3433 46.5,35.5C 46.5,34.1667 46.5,32.8333 46.5,31.5C 48.1992,31.6602 49.8659,31.4935 51.5,31C 53.566,23.3206 57.8994,17.4873 64.5,13.5 Z"/></g>
<g><path style="opacity:0.787" fill="#fefffe" d="M 132.5,18.5 C 140.233,17.3419 142.566,20.1752 139.5,27C 134.984,29.2444 131.984,27.9111 130.5,23C 131.044,21.415 131.711,19.915 132.5,18.5 Z"/></g>
<g><path style="opacity:0.838" fill="#fefffe" d="M 223.5,24.5 C 225.167,24.5 226.833,24.5 228.5,24.5C 228.002,27.8286 227.002,30.9953 225.5,34C 227.5,34.3333 229.5,34.6667 231.5,35C 230.663,36.0113 230.33,37.1779 230.5,38.5C 228.396,38.2011 226.396,38.5344 224.5,39.5C 222.365,45.3611 221.199,51.3611 221,57.5C 222.771,56.6959 224.271,55.5292 225.5,54C 226.944,53.2195 228.277,53.3861 229.5,54.5C 225.34,62.2551 219.34,64.2551 211.5,60.5C 210.819,53.0367 212.153,45.8701 215.5,39C 210.568,39.4244 209.568,37.9244 212.5,34.5C 218.105,33.2126 221.772,29.8793 223.5,24.5 Z"/></g>
<g><path style="opacity:0.838" fill="#fefffe" d="M 451.5,24.5 C 453.167,24.5 454.833,24.5 456.5,24.5C 456.002,27.8286 455.002,30.9953 453.5,34C 455.5,34.3333 457.5,34.6667 459.5,35C 458.663,36.0113 458.33,37.1779 458.5,38.5C 456.396,38.2011 454.396,38.5344 452.5,39.5C 450.365,45.3611 449.199,51.3611 449,57.5C 450.771,56.6959 452.271,55.5292 453.5,54C 454.944,53.2195 456.277,53.3861 457.5,54.5C 453.34,62.2551 447.34,64.2551 439.5,60.5C 438.819,53.0367 440.153,45.8701 443.5,39C 438.568,39.4244 437.568,37.9244 440.5,34.5C 446.105,33.2126 449.772,29.8793 451.5,24.5 Z"/></g>
<g><path style="opacity:0.847" fill="#fefffe" d="M 20.5,30.5 C 25.1785,30.3342 29.8452,30.5008 34.5,31C 39.7465,32.2371 41.5798,35.4038 40,40.5C 37.4556,43.0801 34.9556,43.0801 32.5,40.5C 31.627,38.5866 30.627,36.7533 29.5,35C 27.5594,34.2571 25.7261,34.4238 24,35.5C 23.3333,36.5 23.3333,37.5 24,38.5C 26.2336,40.6998 28.7336,42.5331 31.5,44C 38.9471,51.5507 37.9471,57.5507 28.5,62C 23.8333,62.6667 19.1667,62.6667 14.5,62C 8.64069,60.7808 6.47402,57.2808 8,51.5C 10.6667,48.8333 13.3333,48.8333 16,51.5C 16.6184,56.8033 19.4518,58.9699 24.5,58C 25.3567,57.3109 26.0233,56.4776 26.5,55.5C 22.0837,51.5132 17.9171,47.1799 14,42.5C 13.3121,36.8712 15.4788,32.8712 20.5,30.5 Z"/></g>
<g><path style="opacity:0.828" fill="#fefffe" d="M 75.5,30.5 C 80.9506,30.245 86.2839,30.9117 91.5,32.5C 93.5771,31.0629 95.9105,30.3962 98.5,30.5C 98.0374,36.252 95.3707,40.752 90.5,44C 85.8333,46.6667 81.1667,49.3333 76.5,52C 80.728,53.4123 85.0613,54.2456 89.5,54.5C 87.8884,50.6051 89.2217,48.7718 93.5,49C 94.3567,49.6891 95.0233,50.5224 95.5,51.5C 94.6298,56.423 91.9631,59.923 87.5,62C 81.898,62.7232 76.398,62.2232 71,60.5C 68.941,61.6182 66.7743,62.2849 64.5,62.5C 64.4598,59.5755 65.2932,56.9088 67,54.5C 72.7513,49.5831 78.918,45.2497 85.5,41.5C 81.6054,39.5173 77.6054,38.8507 73.5,39.5C 75.0523,44.1123 73.5523,45.4456 69,43.5C 68.0111,37.4773 70.1778,33.144 75.5,30.5 Z"/></g>
<g><path style="opacity:0.83" fill="#fefffe" d="M 125.5,33.5 C 132.981,31.4945 136.147,34.1611 135,41.5C 133.265,46.2062 131.431,50.8729 129.5,55.5C 129.833,55.8333 130.167,56.1667 130.5,56.5C 132.204,54.9587 134.037,53.6254 136,52.5C 136.5,52.8333 137,53.1667 137.5,53.5C 134.512,60.8268 129.178,63.6601 121.5,62C 120.106,61.044 119.439,59.7106 119.5,58C 121.132,52.771 122.965,47.6044 125,42.5C 125.868,37.6168 125.035,37.2834 122.5,41.5C 120.926,42.6309 119.259,42.7975 117.5,42C 119.695,38.6406 122.362,35.8072 125.5,33.5 Z"/></g>
<g><path style="opacity:0.838" fill="#fefffe" d="M 146.5,33.5 C 152.276,31.9393 155.776,33.9393 157,39.5C 161.722,33.4635 167.389,32.1302 174,35.5C 174.636,42.5901 173.136,49.2568 169.5,55.5C 169.833,55.8333 170.167,56.1667 170.5,56.5C 174.056,54.354 177.722,52.354 181.5,50.5C 184.652,51.7791 186.652,54.1125 187.5,57.5C 194.654,59.526 195.987,57.6926 191.5,52C 184.642,49.4508 182.142,44.6174 184,37.5C 185.319,35.5125 187.152,34.3459 189.5,34C 193.833,33.3333 198.167,33.3333 202.5,34C 208.665,37.1139 208.998,40.6139 203.5,44.5C 200.092,42.3596 197.259,39.693 195,36.5C 193.513,37.1552 192.347,38.1552 191.5,39.5C 195.855,42.5991 199.688,46.2657 203,50.5C 204.778,56.0564 202.945,59.8898 197.5,62C 191.747,62.8508 186.08,62.5174 180.5,61C 178.232,59.4423 177.066,57.2756 177,54.5C 173.832,61.1676 168.665,63.6676 161.5,62C 160.39,59.2628 160.223,56.4294 161,53.5C 162.798,49.2736 164.298,44.9403 165.5,40.5C 165.167,39.8333 164.833,39.1667 164.5,38.5C 157.738,44.7735 152.738,52.2735 149.5,61C 146.518,61.498 143.518,61.6646 140.5,61.5C 142.088,54.4014 144.088,47.4014 146.5,40.5C 146.333,39.8333 146.167,39.1667 146,38.5C 145.044,39.5786 144.211,40.7453 143.5,42C 142.056,42.7805 140.723,42.6139 139.5,41.5C 141.169,38.1697 143.502,35.5031 146.5,33.5 Z"/></g>
<g><path style="opacity:0.829" fill="#fefffe" d="M 238.5,33.5 C 245.697,32.1958 248.863,35.1958 248,42.5C 249.576,35.5594 253.743,32.7261 260.5,34C 263.201,37.5339 262.867,40.8672 259.5,44C 256.21,44.5894 254.71,43.0894 255,39.5C 249.875,46.0354 246.375,53.3688 244.5,61.5C 241.102,61.8204 237.768,61.487 234.5,60.5C 236.102,53.9929 237.769,47.4929 239.5,41C 239.167,40.5 238.833,40 238.5,39.5C 236.826,40.8801 235.16,42.2134 233.5,43.5C 232.833,43.1667 232.167,42.8333 231.5,42.5C 232.774,38.5725 235.107,35.5725 238.5,33.5 Z"/></g>
<g><path style="opacity:0.836" fill="#fefffe" d="M 271.5,33.5 C 279.336,31.8548 282.17,34.8548 280,42.5C 278.599,46.8708 277.099,51.2041 275.5,55.5C 275.808,56.3081 276.308,56.9747 277,57.5C 280.351,55.1463 283.018,52.1463 285,48.5C 287.311,44.0455 289.478,39.5455 291.5,35C 294.482,34.502 297.482,34.3354 300.5,34.5C 298.337,41.8204 296.503,49.1537 295,56.5C 296.711,53.4203 299.211,52.2536 302.5,53C 299.434,60.1965 294.1,63.1965 286.5,62C 285.283,60.3523 284.45,58.519 284,56.5C 280.178,62.0408 275.011,63.8741 268.5,62C 266.993,60.5267 266.326,58.6934 266.5,56.5C 267.933,50.3898 269.433,44.3898 271,38.5C 269.289,41.5797 266.789,42.7464 263.5,42C 265.695,38.6406 268.362,35.8072 271.5,33.5 Z"/></g>
<g><path style="opacity:0.842" fill="#fefffe" d="M 310.5,33.5 C 313.187,33.3359 315.854,33.5026 318.5,34C 319.167,35.3333 319.833,36.6667 320.5,38C 319.483,39.0495 319.316,40.2161 320,41.5C 324.568,34.9634 330.735,32.4634 338.5,34C 340.155,36.5074 340.989,39.3408 341,42.5C 345.358,35.7377 351.525,32.9043 359.5,34C 360.848,35.5741 361.514,37.4075 361.5,39.5C 360.336,44.8262 358.669,49.9929 356.5,55C 356.833,55.5 357.167,56 357.5,56.5C 358.92,53.0342 361.253,52.0342 364.5,53.5C 360.995,60.6715 355.495,63.3382 348,61.5C 347.219,60.2713 346.719,58.938 346.5,57.5C 348.301,51.4317 350.301,45.4317 352.5,39.5C 352.167,39.1667 351.833,38.8333 351.5,38.5C 343.632,44.0466 337.965,51.38 334.5,60.5C 331.216,61.657 327.882,61.8236 324.5,61C 327.142,54.0964 329.475,47.0964 331.5,40C 330.975,39.3076 330.308,38.8076 329.5,38.5C 321.746,43.9812 316.413,51.3145 313.5,60.5C 310.216,61.657 306.882,61.8236 303.5,61C 306.297,53.6159 308.464,46.1159 310,38.5C 308.833,39.6667 307.667,40.8333 306.5,42C 305.056,42.7805 303.723,42.6139 302.5,41.5C 304.34,37.9311 307.007,35.2644 310.5,33.5 Z"/></g>
<g><path style="opacity:0.819" fill="#fefffe" d="M 381.5,33.5 C 385.637,33.1463 389.637,33.6463 393.5,35C 396.689,42.3 394.356,47.3 386.5,50C 383.274,51.1989 379.941,51.6989 376.5,51.5C 376.696,54.6985 378.363,56.6985 381.5,57.5C 384.107,56.8631 386.44,55.6965 388.5,54C 390.5,53.3333 392.5,53.3333 394.5,54C 388.787,62.0133 381.12,64.68 371.5,62C 364.98,57.4041 363.814,51.5708 368,44.5C 371.336,39.2685 375.836,35.6018 381.5,33.5 Z M 382.5,37.5 C 387.494,37.295 388.994,39.295 387,43.5C 384.005,46.1101 380.505,47.4435 376.5,47.5C 377.272,43.4023 379.272,40.069 382.5,37.5 Z"/></g>
<g><path style="opacity:0.843" fill="#fefffe" d="M 404.5,33.5 C 410.276,31.9393 413.776,33.9393 415,39.5C 419.722,33.4635 425.389,32.1302 432,35.5C 432.636,42.5901 431.136,49.2568 427.5,55.5C 429.123,56.4756 430.457,55.9756 431.5,54C 432.833,53.3333 434.167,53.3333 435.5,54C 432.062,61.3062 426.562,63.8062 419,61.5C 418.333,58.8333 418.333,56.1667 419,53.5C 420.798,49.2736 422.298,44.9403 423.5,40.5C 423.167,39.8333 422.833,39.1667 422.5,38.5C 415.738,44.7735 410.738,52.2735 407.5,61C 404.518,61.498 401.518,61.6646 398.5,61.5C 400.088,54.4014 402.088,47.4014 404.5,40.5C 404.333,39.8333 404.167,39.1667 404,38.5C 403.044,39.5786 402.211,40.7453 401.5,42C 400.056,42.7805 398.723,42.6139 397.5,41.5C 399.169,38.1697 401.502,35.5031 404.5,33.5 Z"/></g>
<g><path style="opacity:0.832" fill="#fefffe" d="M 470.5,33.5 C 474.846,33.3343 479.179,33.501 483.5,34C 489.665,37.1139 489.998,40.6139 484.5,44.5C 481.092,42.3596 478.259,39.693 476,36.5C 474.513,37.1552 473.347,38.1552 472.5,39.5C 476.855,42.5991 480.688,46.2657 484,50.5C 485.778,56.0564 483.945,59.8898 478.5,62C 473.833,62.6667 469.167,62.6667 464.5,62C 459.29,60.7895 457.456,57.6228 459,52.5C 461.333,49.8333 463.667,49.8333 466,52.5C 466.719,55.6568 468.552,57.6568 471.5,58.5C 473.319,58.6578 474.652,57.9911 475.5,56.5C 472.182,52.6819 468.682,49.0152 465,45.5C 463.036,39.5323 464.869,35.5323 470.5,33.5 Z"/></g>
</svg>
