<?xml version="1.0" standalone="no"?>
<!DOCTYPE svg PUBLIC "-//W3C//DTD SVG 20010904//EN"
 "http://www.w3.org/TR/2001/REC-SVG-20010904/DTD/svg10.dtd">
<svg version="1.0" xmlns="http://www.w3.org/2000/svg"
 width="160.000000pt" height="160.000000pt" viewBox="0 0 160.000000 160.000000"
 preserveAspectRatio="xMidYMid meet">
<metadata>
Created by potrace 1.11, written by Peter Selinger 2001-2013
</metadata>
<g transform="translate(0.000000,160.000000) scale(0.100000,-0.100000)"
fill="#000000" stroke="none">
<path d="M967 1271 c-18 -8 -36 -21 -40 -28 -5 -8 -12 -11 -18 -8 -5 4 -9 2
-9 -3 0 -5 -9 -20 -20 -33 -11 -13 -23 -28 -28 -34 -7 -9 -25 -47 -52 -110 -5
-11 -10 -27 -13 -35 -2 -8 -16 -16 -33 -16 -52 -3 -57 -4 -51 -10 3 -3 2 -17
-3 -30 -9 -22 -7 -24 20 -24 37 0 42 -9 29 -51 -6 -19 -12 -45 -15 -59 -2 -14
-7 -32 -11 -40 -3 -8 -7 -19 -8 -25 -2 -5 -8 -30 -15 -55 -7 -25 -14 -54 -16
-64 -2 -11 -10 -40 -18 -65 -9 -25 -17 -58 -20 -74 -8 -45 -17 -67 -27 -67 -6
0 -7 -5 -4 -11 4 -5 -1 -19 -11 -30 -13 -14 -20 -16 -30 -8 -8 6 -11 15 -8 20
3 5 0 8 -8 7 -7 -2 -12 5 -12 14 1 10 -1 17 -5 16 -3 0 -8 1 -11 2 -3 1 -18 3
-35 4 -52 3 -88 -52 -64 -96 10 -19 65 -45 83 -40 5 2 6 -5 2 -15 -5 -16 -4
-16 6 -3 8 9 30 15 57 15 27 0 45 4 48 13 3 7 12 11 20 8 8 -3 11 -1 8 4 -3 6
-2 10 4 10 6 0 28 18 50 40 22 22 44 40 50 40 5 0 13 4 16 10 4 6 -1 7 -11 3
-15 -5 -14 -3 2 23 10 16 22 32 27 35 5 3 8 9 8 13 -3 19 0 27 8 22 5 -4 7 4
3 16 -3 13 -1 19 5 15 7 -5 9 0 6 13 -3 11 0 20 6 20 5 0 8 7 5 15 -4 8 -1 15
5 15 6 0 10 3 10 8 -5 27 2 52 13 46 7 -4 8 -3 4 4 -9 14 14 103 25 97 4 -3 6
6 3 19 -2 14 0 28 6 31 6 4 8 11 4 16 -3 6 2 17 12 25 11 9 13 13 7 9 -16 -8
-16 -3 -1 30 6 14 17 24 24 21 8 -3 16 -1 19 4 3 6 15 6 30 0 26 -10 26 -10
29 40 1 22 -3 25 -36 24 -25 0 -38 4 -38 13 0 7 5 13 12 13 9 0 9 3 0 12 -8 8
-8 16 0 32 6 11 12 27 13 36 4 39 27 99 40 104 10 3 20 -6 31 -27 21 -41 17
-37 59 -47 20 -5 34 -6 31 -3 -2 3 5 15 18 27 18 16 21 27 15 48 -4 15 -5 28
-3 31 2 2 -16 14 -41 26 -50 25 -108 26 -158 2z"/>
<path d="M351 1018 c-128 -20 -198 -114 -152 -203 8 -16 14 -34 13 -38 -1 -5
2 -6 8 -2 5 3 10 -1 10 -9 0 -9 3 -15 8 -14 14 3 42 -14 36 -23 -3 -5 1 -6 8
-4 15 6 91 -60 101 -87 3 -10 2 -20 -4 -23 -5 -4 -7 -10 -5 -14 3 -4 -6 -14
-21 -22 -55 -30 -87 -14 -118 56 -27 61 -37 69 -82 71 -37 2 -63 -22 -65 -57
-2 -44 2 -72 9 -66 6 7 39 -33 36 -43 -1 -3 6 -6 15 -7 19 -1 57 -10 57 -13 0
-9 143 -15 152 -6 3 3 15 1 26 -5 14 -8 18 -8 13 0 -6 10 13 16 37 12 4 0 7 3
7 9 0 5 6 10 13 10 16 1 67 46 67 60 0 5 4 10 9 10 5 0 8 8 6 18 -1 9 2 25 6
34 6 10 5 19 -1 23 -5 3 -10 14 -10 23 0 18 -84 115 -92 106 -3 -2 -17 7 -31
20 -15 14 -27 22 -27 19 0 -3 -7 0 -15 7 -8 7 -12 16 -9 21 3 5 0 8 -6 7 -21
-5 -30 38 -12 55 22 20 72 30 72 15 0 -6 3 -8 6 -5 9 9 45 -33 38 -44 -3 -5 0
-9 5 -9 6 0 11 -9 11 -19 0 -10 7 -22 16 -25 8 -3 13 -10 10 -14 -5 -9 48 -5
74 5 8 4 18 5 22 5 5 -1 7 1 7 6 -1 4 0 9 1 12 7 15 4 70 -3 70 -5 0 -7 7 -4
14 4 10 1 13 -9 9 -7 -3 -14 -1 -14 4 0 8 -39 33 -60 38 -83 21 -100 22 -159
13z"/>
<path d="M1249 1026 c-2 -2 -24 -6 -48 -10 -24 -3 -50 -11 -57 -17 -8 -6 -14
-9 -14 -5 0 16 -44 -34 -65 -74 -31 -62 -22 -111 21 -111 46 1 51 4 46 25 -3
12 -9 27 -15 34 -18 23 7 34 62 26 28 -4 51 -10 51 -14 0 -3 6 -7 13 -7 6 -1
28 -4 47 -6 19 -3 39 -6 44 -6 11 -1 -14 -31 -26 -31 -5 0 -6 5 -2 12 4 7 3 8
-5 4 -6 -4 -9 -11 -6 -16 3 -5 -30 -28 -72 -51 -43 -23 -81 -47 -85 -53 -5 -7
-8 -7 -8 -1 0 6 -7 1 -15 -9 -8 -11 -15 -17 -15 -13 0 12 -75 -70 -94 -103
-10 -18 -20 -46 -21 -61 -2 -26 1 -29 27 -29 21 0 31 6 35 19 3 11 10 21 16
24 14 4 120 -27 113 -34 -2 -2 35 -5 82 -6 57 -1 89 3 94 10 4 7 12 13 18 13
5 1 18 2 28 4 9 1 12 4 6 6 -7 3 0 17 16 34 17 18 31 49 37 79 10 49 9 50 -17
61 -15 6 -33 10 -41 8 -21 -5 -27 -40 -11 -65 8 -13 13 -23 11 -23 -2 -1 -21
-3 -41 -6 -25 -4 -38 -2 -38 6 0 6 -4 9 -8 6 -4 -3 -28 0 -53 6 -24 5 -51 11
-59 13 -8 1 -14 9 -12 16 1 9 -3 7 -12 -4 -8 -10 -17 -14 -20 -9 -3 5 11 18
32 28 20 10 49 27 64 37 16 10 33 15 39 11 8 -5 9 -3 4 6 -6 10 -4 12 8 7 9
-3 16 -3 14 1 -1 4 0 7 3 7 4 0 26 17 49 37 24 21 48 35 52 32 5 -3 9 2 9 11
0 9 5 13 10 10 6 -3 10 1 10 10 0 11 5 15 16 11 8 -3 12 -2 9 4 -3 5 4 22 15
38 12 15 22 38 23 50 1 12 5 22 9 22 4 0 5 6 2 14 -9 23 -61 17 -68 -7 -4 -18
-10 -19 -53 -13 -26 3 -49 10 -51 16 -2 5 -10 6 -19 3 -10 -4 -14 -2 -10 4 5
7 0 9 -12 6 -10 -3 -28 0 -39 6 -11 6 -21 9 -23 7z"/>
</g>
</svg>
